<svg width="21" height="20" viewBox="0 0 21 20" fill="none" xmlns="http://www.w3.org/2000/svg">
<g clip-path="url(#clip0_134_86)" filter="url(#filter0_i_134_86)">
<path d="M20.0281 5.37211C19.9159 4.9719 19.6974 4.60958 19.3957 4.32365C19.0855 4.02893 18.7054 3.81811 18.2911 3.71109C16.7407 3.30243 10.5292 3.30243 10.5292 3.30243C7.93971 3.27297 5.35084 3.40255 2.77722 3.69045C2.36294 3.80538 1.9835 4.02091 1.67262 4.31787C1.36716 4.61177 1.14591 4.97419 1.03034 5.37128C0.752694 6.86699 0.617797 8.38568 0.627463 9.90691C0.617556 11.4268 0.752122 12.945 1.03034 14.4425C1.14344 14.838 1.36386 15.1987 1.67014 15.4902C1.97643 15.7816 2.35783 15.9921 2.77722 16.1036C4.34826 16.5114 10.5292 16.5114 10.5292 16.5114C13.122 16.5409 15.7142 16.4113 18.2911 16.1234C18.7054 16.0163 19.0855 15.8055 19.3957 15.5108C19.7012 15.2194 19.9183 14.857 20.0273 14.4623C20.3122 12.9672 20.4507 11.4479 20.4409 9.92589C20.4623 8.39746 20.324 6.87097 20.0281 5.37128V5.37211ZM8.55448 12.7336V7.08102L13.7225 9.90773L8.55448 12.7336Z" fill="#3BB77E"/>
</g>
<defs>
<filter id="filter0_i_134_86" x="0.626953" y="0" width="19.8125" height="20.4669" filterUnits="userSpaceOnUse" color-interpolation-filters="sRGB">
<feFlood flood-opacity="0" result="BackgroundImageFix"/>
<feBlend mode="normal" in="SourceGraphic" in2="BackgroundImageFix" result="shape"/>
<feColorMatrix in="SourceAlpha" type="matrix" values="0 0 0 0 0 0 0 0 0 0 0 0 0 0 0 0 0 0 127 0" result="hardAlpha"/>
<feOffset dy="0.653399"/>
<feGaussianBlur stdDeviation="1.22512"/>
<feComposite in2="hardAlpha" operator="arithmetic" k2="-1" k3="1"/>
<feColorMatrix type="matrix" values="0 0 0 0 0 0 0 0 0 0 0 0 0 0 0 0 0 0 0.2 0"/>
<feBlend mode="normal" in2="shape" result="effect1_innerShadow_134_86"/>
</filter>
<clipPath id="clip0_134_86">
<rect width="19.8134" height="19.8134" fill="white" transform="translate(0.626953)"/>
</clipPath>
</defs>
</svg>
