<svg width="21" height="20" viewBox="0 0 21 20" fill="none" xmlns="http://www.w3.org/2000/svg">
<g filter="url(#filter0_i_134_83)">
<path fill-rule="evenodd" clip-rule="evenodd" d="M6.60091 0.88017C7.56929 0.83559 7.87805 0.825684 10.3448 0.825684C12.8116 0.825684 13.1204 0.836416 14.0879 0.88017C15.0555 0.923925 15.7159 1.0783 16.2938 1.30203C16.8989 1.53071 17.4479 1.88818 17.902 2.35049C18.3643 2.80372 18.7209 3.35189 18.9488 3.95785C19.1733 4.53575 19.3269 5.19619 19.3715 6.1621C19.4161 7.13213 19.426 7.44089 19.426 9.90683C19.426 12.3736 19.4152 12.6824 19.3715 13.6507C19.3277 14.6166 19.1733 15.2771 18.9488 15.855C18.7209 16.461 18.3637 17.0101 17.902 17.464C17.4479 17.9263 16.8989 18.283 16.2938 18.5108C15.7159 18.7354 15.0555 18.8889 14.0896 18.9335C13.1203 18.9781 12.8116 18.988 10.3448 18.988C7.87805 18.988 7.56929 18.9773 6.60091 18.9335C5.63501 18.8897 4.97456 18.7354 4.39667 18.5108C3.79064 18.2829 3.24156 17.9257 2.78765 17.464C2.32565 17.0105 1.96813 16.4617 1.74002 15.8558C1.51629 15.2779 1.36274 14.6175 1.31816 13.6516C1.27358 12.6815 1.26367 12.3728 1.26367 9.90683C1.26367 7.44006 1.2744 7.1313 1.31816 6.16375C1.36191 5.19619 1.51629 4.53575 1.74002 3.95785C1.96847 3.35196 2.32626 2.80316 2.78848 2.34967C3.24174 1.88777 3.79027 1.53025 4.39584 1.30203C4.97373 1.0783 5.63418 0.924751 6.60009 0.88017H6.60091ZM14.0144 2.51478C13.0568 2.47102 12.7695 2.46194 10.3448 2.46194C7.92015 2.46194 7.63286 2.47102 6.67521 2.51478C5.78939 2.55523 5.30891 2.703 4.98859 2.82766C4.56508 2.99278 4.2621 3.18843 3.94426 3.50627C3.64297 3.79939 3.4111 4.15622 3.26565 4.55061C3.14099 4.87092 2.99322 5.3514 2.95277 6.23722C2.90901 7.19487 2.89993 7.48217 2.89993 9.90683C2.89993 12.3315 2.90901 12.6188 2.95277 13.5764C2.99322 14.4623 3.14099 14.9427 3.26565 15.2631C3.41095 15.6569 3.64293 16.0143 3.94426 16.3074C4.23734 16.6087 4.5948 16.8407 4.98859 16.986C5.30891 17.1107 5.78939 17.2584 6.67521 17.2989C7.63286 17.3426 7.91933 17.3517 10.3448 17.3517C12.7703 17.3517 13.0568 17.3426 14.0144 17.2989C14.9003 17.2584 15.3807 17.1107 15.701 16.986C16.1246 16.8209 16.4275 16.6252 16.7454 16.3074C17.0467 16.0143 17.2787 15.6569 17.424 15.2631C17.5486 14.9427 17.6964 14.4623 17.7369 13.5764C17.7806 12.6188 17.7897 12.3315 17.7897 9.90683C17.7897 7.48217 17.7806 7.19487 17.7369 6.23722C17.6964 5.3514 17.5486 4.87092 17.424 4.55061C17.2589 4.12709 17.0632 3.82411 16.7454 3.50627C16.4522 3.205 16.0954 2.97314 15.701 2.82766C15.3807 2.703 14.9003 2.55523 14.0144 2.51478ZM9.18491 12.7063C9.83269 12.976 10.554 13.0124 11.2256 12.8093C11.8973 12.6062 12.4776 12.1762 12.8674 11.5928C13.2573 11.0094 13.4325 10.3088 13.3631 9.61054C13.2937 8.91231 12.9841 8.25982 12.4871 7.76451C12.1703 7.44789 11.7872 7.20545 11.3655 7.05465C10.9437 6.90385 10.4938 6.84843 10.048 6.8924C9.60228 6.93637 9.17183 7.07861 8.78765 7.30891C8.40348 7.5392 8.07515 7.85181 7.82629 8.22422C7.57743 8.59664 7.41424 9.0196 7.34847 9.46265C7.28269 9.9057 7.31597 10.3578 7.4459 10.7865C7.57584 11.2151 7.79919 11.6096 8.0999 11.9416C8.4006 12.2736 8.77116 12.5347 9.18491 12.7063ZM7.04424 6.60625C7.47767 6.17281 7.99224 5.82899 8.55856 5.59441C9.12487 5.35984 9.73185 5.2391 10.3448 5.2391C10.9578 5.2391 11.5648 5.35984 12.1311 5.59441C12.6974 5.82899 13.212 6.17281 13.6454 6.60625C14.0788 7.03969 14.4227 7.55425 14.6572 8.12057C14.8918 8.68688 15.0126 9.29386 15.0126 9.90683C15.0126 10.5198 14.8918 11.1268 14.6572 11.6931C14.4227 12.2594 14.0788 12.774 13.6454 13.2074C12.77 14.0828 11.5828 14.5746 10.3448 14.5746C9.10686 14.5746 7.91961 14.0828 7.04424 13.2074C6.16887 12.332 5.67709 11.1448 5.67709 9.90683C5.67709 8.66887 6.16887 7.48162 7.04424 6.60625ZM16.0478 5.93424C16.1552 5.83292 16.2412 5.71108 16.3007 5.57593C16.3601 5.44078 16.3919 5.29507 16.394 5.14743C16.3962 4.99979 16.3687 4.85321 16.3132 4.71639C16.2577 4.57956 16.1753 4.45526 16.0709 4.35085C15.9665 4.24644 15.8422 4.16404 15.7053 4.10853C15.5685 4.05302 15.4219 4.02553 15.2743 4.02768C15.1266 4.02984 14.9809 4.06159 14.8458 4.12106C14.7106 4.18054 14.5888 4.26653 14.4875 4.37394C14.2904 4.58283 14.1825 4.86029 14.1867 5.14743C14.1909 5.43456 14.3068 5.70877 14.5099 5.91182C14.713 6.11488 14.9872 6.23081 15.2743 6.23499C15.5614 6.23918 15.8389 6.1313 16.0478 5.93424Z" fill="#3BB77E"/>
</g>
<defs>
<filter id="filter0_i_134_83" x="0.439453" y="0" width="19.8125" height="20.4669" filterUnits="userSpaceOnUse" color-interpolation-filters="sRGB">
<feFlood flood-opacity="0" result="BackgroundImageFix"/>
<feBlend mode="normal" in="SourceGraphic" in2="BackgroundImageFix" result="shape"/>
<feColorMatrix in="SourceAlpha" type="matrix" values="0 0 0 0 0 0 0 0 0 0 0 0 0 0 0 0 0 0 127 0" result="hardAlpha"/>
<feOffset dy="0.653399"/>
<feGaussianBlur stdDeviation="1.22512"/>
<feComposite in2="hardAlpha" operator="arithmetic" k2="-1" k3="1"/>
<feColorMatrix type="matrix" values="0 0 0 0 0 0 0 0 0 0 0 0 0 0 0 0 0 0 0.2 0"/>
<feBlend mode="normal" in2="shape" result="effect1_innerShadow_134_83"/>
</filter>
</defs>
</svg>
