<svg width="21" height="20" viewBox="0 0 21 20" fill="none" xmlns="http://www.w3.org/2000/svg">
<g clip-path="url(#clip0_134_80)" filter="url(#filter0_i_134_80)">
<path d="M20.333 4.07613C19.6437 4.38159 18.9032 4.58798 18.1247 4.68127C18.9279 4.20062 19.5289 3.44414 19.8154 2.55298C19.0607 3.00124 18.2348 3.31678 17.3734 3.48586C16.7942 2.8674 16.027 2.45748 15.1909 2.31973C14.3548 2.18199 13.4967 2.32412 12.7496 2.72407C12.0026 3.12403 11.4086 3.75942 11.0597 4.5316C10.7108 5.30378 10.6266 6.16954 10.8201 6.99448C9.29092 6.9177 7.79496 6.52024 6.42932 5.82789C5.06368 5.13554 3.85887 4.16377 2.8931 2.97566C2.56288 3.5453 2.373 4.20574 2.373 4.90912C2.37263 5.54232 2.52856 6.16582 2.82695 6.7243C3.12535 7.28279 3.55698 7.75898 4.08356 8.11064C3.47287 8.09121 2.87566 7.9262 2.34163 7.62934V7.67887C2.34156 8.56696 2.64876 9.42772 3.21109 10.1151C3.77342 10.8025 4.55625 11.2741 5.42674 11.45C4.86023 11.6033 4.26628 11.6259 3.68976 11.5161C3.93537 12.2802 4.41378 12.9484 5.05802 13.4272C5.70226 13.9059 6.48009 14.1712 7.2826 14.1859C5.92029 15.2554 4.23784 15.8355 2.50591 15.8329C2.19912 15.833 1.89258 15.8151 1.58789 15.7793C3.3459 16.9096 5.39235 17.5095 7.48238 17.5072C14.5574 17.5072 18.4252 11.6473 18.4252 6.56519C18.4252 6.40008 18.421 6.23332 18.4136 6.06821C19.1659 5.52414 19.8153 4.85042 20.3314 4.07861L20.333 4.07613Z" fill="#3BB77E"/>
</g>
<defs>
<filter id="filter0_i_134_80" x="0.8125" y="0" width="19.8125" height="20.4669" filterUnits="userSpaceOnUse" color-interpolation-filters="sRGB">
<feFlood flood-opacity="0" result="BackgroundImageFix"/>
<feBlend mode="normal" in="SourceGraphic" in2="BackgroundImageFix" result="shape"/>
<feColorMatrix in="SourceAlpha" type="matrix" values="0 0 0 0 0 0 0 0 0 0 0 0 0 0 0 0 0 0 127 0" result="hardAlpha"/>
<feOffset dy="0.653399"/>
<feGaussianBlur stdDeviation="1.22512"/>
<feComposite in2="hardAlpha" operator="arithmetic" k2="-1" k3="1"/>
<feColorMatrix type="matrix" values="0 0 0 0 0 0 0 0 0 0 0 0 0 0 0 0 0 0 0.2 0"/>
<feBlend mode="normal" in2="shape" result="effect1_innerShadow_134_80"/>
</filter>
<clipPath id="clip0_134_80">
<rect width="19.8134" height="19.8134" fill="white" transform="translate(0.8125)"/>
</clipPath>
</defs>
</svg>
