<svg width="20" height="20" viewBox="0 0 20 20" fill="none" xmlns="http://www.w3.org/2000/svg">
<path d="M0 9.60951C0 4.08776 4.32552 0 9.90671 0C15.4879 0 19.8134 4.08776 19.8134 9.60951C19.8134 15.1313 15.4879 19.219 9.90671 19.219C8.90365 19.219 7.9427 19.0865 7.03872 18.8388C6.86343 18.7901 6.67669 18.8032 6.50995 18.876L4.54346 19.7453C4.4247 19.7977 4.29488 19.8201 4.16542 19.8106C4.03596 19.8011 3.91083 19.7599 3.80101 19.6907C3.6912 19.6214 3.60006 19.5263 3.53562 19.4136C3.47118 19.3009 3.4354 19.1742 3.43144 19.0444L3.37695 17.2823C3.37318 17.175 3.34764 17.0696 3.30187 16.9725C3.2561 16.8755 3.19106 16.7887 3.11071 16.7176C1.18385 14.9938 0 12.4973 0 9.60951ZM6.86783 7.80277L3.95773 12.4193C3.6791 12.8626 4.22273 13.3617 4.64005 13.0459L7.76686 10.6732C7.8697 10.5951 7.99518 10.5526 8.12432 10.5522C8.25347 10.5517 8.37924 10.5934 8.48262 10.6708L10.7971 12.4069C10.9613 12.5301 11.1492 12.6179 11.3491 12.6648C11.5489 12.7117 11.7563 12.7166 11.9581 12.6794C12.16 12.6422 12.3519 12.5635 12.5219 12.4484C12.6918 12.3333 12.8361 12.1843 12.9456 12.0106L15.8557 7.39412C16.1356 6.95079 15.5907 6.45174 15.1734 6.76752L12.0466 9.14018C11.9437 9.21829 11.8182 9.26078 11.6891 9.26123C11.56 9.26167 11.4342 9.22005 11.3308 9.14265L9.01634 7.40526C8.85213 7.28212 8.66418 7.19433 8.46435 7.14743C8.26452 7.10053 8.05714 7.09554 7.85528 7.13277C7.65343 7.17 7.46147 7.24864 7.29152 7.36374C7.12157 7.47884 6.97731 7.62791 6.86783 7.80153V7.80277Z" fill="#3BB77E"/>
</svg>
